# xmcd CD database file
#
# Track frame offsets:
#	150
#	15402
#	36625
#	58977
#	81027
#	101467
#	123250
#	144965
#	165350
#	188935
#	211180
#	227415
#
# Disc length: 3154 seconds
#
# Revision: 2
# Processed by: cddbd v1.5PL3 Copyright (c) Steve Scherf et al.
# Submitted via: CDex 1.50
#
DISCID=940c500c
DTITLE=大黒摩季 - BACK BEATs #2  〜Maki Ohguro and Staff Works〜
DYEAR=2001
DGENRE=JPop
TTITLE0=DA・KA・RA
TTITLE1=あなただけ見つめてる
TTITLE2=夏が来る (LIVE Version)
TTITLE3=永遠の夢に向かって (LIVE Version)
TTITLE4=ら・ら・ら (LIVE Version)
TTITLE5=いちばん近くにいてね
TTITLE6=愛してます
TTITLE7=あぁ
TTITLE8=アンバランス
TTITLE9=太陽の国へ行こうよ すぐに 〜空飛ぶ夢に乗って〜
TTITLE10=夢なら醒めてよ
TTITLE11=WHITE CHRISTMAS
EXTD=YEAR: 2001
EXTT0=
EXTT1=
EXTT2=
EXTT3=
EXTT4=
EXTT5=
EXTT6=
EXTT7=
EXTT8=
EXTT9=
EXTT10=
EXTT11=
PLAYORDER=
